<?xml version="1.0" encoding="utf-8"?>

<!DOCTYPE svg PUBLIC "-//W3C//DTD SVG 1.1//EN" "http://www.w3.org/Graphics/SVG/1.1/DTD/svg11.dtd">
<!-- Uploaded to: SVG Repo, www.svgrepo.com, Generator: SVG Repo Mixer Tools -->
<svg height="800px" width="800px" version="1.1" id="_x32_" xmlns="http://www.w3.org/2000/svg" xmlns:xlink="http://www.w3.org/1999/xlink" 
	 viewBox="0 0 512 512"  xml:space="preserve">
<style type="text/css">
	.st0{fill:#000000;}
</style>
<g>
	<path class="st0" d="M290.543,142.525c2.734-7.888-1.454-16.499-9.342-19.24c-7.894-2.734-16.506,1.447-19.246,9.335
		c-2.73,7.902,1.454,16.512,9.342,19.253C279.192,154.601,287.81,150.42,290.543,142.525z"/>
	<path class="st0" d="M250.371,304.718c1.819-5.258-0.974-11.004-6.229-12.826c-5.258-1.822-11.007,0.967-12.826,6.232
		c-1.823,5.259,0.964,11.004,6.225,12.826C242.8,312.773,248.548,309.977,250.371,304.718z"/>
	<path class="st0" d="M256.217,349.443c-7.008-2.428-14.67,1.28-17.097,8.305c-2.431,7.012,1.287,14.677,8.295,17.104
		c7.022,2.428,14.687-1.287,17.114-8.298C266.964,359.529,263.235,351.871,256.217,349.443z"/>
	<path class="st0" d="M295.266,193.086c-9.202-3.192-19.26,1.69-22.446,10.9c-3.192,9.21,1.691,19.268,10.892,22.446
		c9.21,3.192,19.268-1.683,22.46-10.893C309.365,206.337,304.476,196.279,295.266,193.086z"/>
	<path class="st0" d="M428.283,157.397c-1.419-5.725-7.206-9.216-12.938-7.797l-27.6,6.837c-1.266-12.179-3.395-24.24-6.956-35.877
		c-4.84-15.803-12.214-30.862-22.772-44.029l33.011-35.098c4.048-4.299,3.84-11.06-0.459-15.101
		c-4.298-4.041-11.059-3.833-15.108,0.459l-32.344,34.375c-14.68-12.159-32.466-19.232-51.009-19.226
		c-5.148,0-10.344,0.543-15.498,1.67c0.007-0.007,0.014-0.007,0.021-0.007l-1.287,0.279l1.245-0.264
		c-2.504,0.543-4.918,1.258-7.317,2.003L253.63,6.702c-2.202-5.474-8.423-8.131-13.898-5.927c-5.474,2.198-8.128,8.424-5.926,13.898
		l15.918,39.599c-12.948,7.707-23.768,18.363-32.028,30.549c-6.694,9.843-10.896,20.506-13.591,31.231
		c-0.772,3.088-1.332,6.177-1.892,9.278l-33.269-23.343c-4.831-3.388-11.495-2.219-14.882,2.616
		c-3.388,4.827-2.219,11.491,2.612,14.878l42.701,29.958c-0.33,4.939-0.594,9.856-0.807,14.69
		c-0.65,15.623-1.154,30.584-3.648,43.633c-1.533,8.089-3.095,15.455-4.751,22.334l-42.527-23.69
		c-5.154-2.873-11.661-1.023-14.534,4.131c-2.869,5.161-1.02,11.665,4.135,14.538l46.968,26.16c-0.824,2.504-1.67,4.98-2.566,7.394
		c-5.412,14.565-12.239,27.934-22.22,43.466c-6.083,9.509-11.584,16.645-16.711,24.999L91.51,339.831
		c-5.728,1.426-9.217,7.22-7.791,12.951c1.422,5.725,7.22,9.21,12.945,7.791l35.06-8.722c-1.412,4.994-2.567,10.482-3.478,16.638
		c-0.772,5.203-1.148,10.274-1.148,15.206c-0.011,12.84,2.594,24.7,7.341,35.084c4.361,9.585,10.521,17.82,17.838,24.616
		l-31.047,30.334c-4.219,4.125-4.298,10.893-0.174,15.108c4.121,4.222,10.885,4.298,15.108,0.181l33.978-33.206
		c13.32,6.997,28.32,10.67,43.65,10.684c3.123,0,6.26-0.202,9.398-0.501l9.171,37.839c1.391,5.732,7.167,9.251,12.902,7.867
		c5.735-1.391,9.254-7.172,7.867-12.904l-8.994-37.101c7.335-2.351,14.51-5.544,21.322-9.718
		c6.254-3.818,23.56-15.386,43.328-38.277l23.117,25.263c3.979,4.354,10.74,4.653,15.094,0.667
		c4.354-3.986,4.646-10.739,0.668-15.094l-25.434-27.781c15.626-21.48,31.624-50.102,44.395-87.405l43.348,10.322
		c5.732,1.363,11.504-2.178,12.868-7.916c1.363-5.746-2.184-11.505-7.915-12.868l-41.901-9.981
		c1.739-6.114,3.408-12.374,4.967-18.906c6.079-25.528,11.157-56.279,11.17-87.468c0-1.468-0.097-2.935-0.125-4.403l31.44-7.79
		C426.211,168.923,429.702,163.128,428.283,157.397z M350.282,263.394c-14.134,59.284-36.687,98.708-56.832,124.208
		c-20.171,25.507-37.88,37.011-42.874,40.079c-7.165,4.396-14.955,7.192-22.864,8.778c-0.222,0.041-0.442,0.035-0.664,0.09
		c-0.104,0.021-0.192,0.076-0.296,0.104c-4.313,0.8-8.65,1.35-12.959,1.35c-15.598,0.013-30.431-5.231-40.92-14.378
		c-5.265-4.583-9.515-10.106-12.513-16.672c-2.991-6.566-4.765-14.218-4.771-23.26c0-3.471,0.264-7.144,0.841-11.032
		c1.016-6.838,2.292-12.104,3.77-16.506c2.233-6.594,4.88-11.415,8.663-17.23c3.76-5.773,8.726-12.416,14.524-21.424
		c10.823-16.805,18.801-32.316,24.968-48.954c6.177-16.645,10.524-34.25,14.554-55.472c4.028-21.507,3.498-43.195,4.924-62.782
		c0.685-9.787,1.808-18.996,3.903-27.294c2.093-8.312,5.098-15.657,9.522-22.168c10.176-14.92,24.355-25.688,41.411-29.388
		l1.266-0.272l-1.245,0.272c3.137-0.689,6.274-1.016,9.418-1.016c12.819,0,25.916,5.544,37.126,16.562
		c11.462,11.31,19.281,25.528,24.316,41.915c5.022,16.367,7.137,34.806,7.123,53.628C360.688,210.608,356,239.446,350.282,263.394z"
		/>
</g>
</svg>